# xmcd CD database file
# Copyright (C) 1993-1998 Ti Kan
#
# Track frame offsets:
#  150
#  14747
#  30687
#  52132
#  61980
#  78482
#  93047
#  104130
#  120515
#  129645
#  145482
#  158077
#  174467
#  182972
#  194659
#  214297
#
# Disc length: 3023 seconds
#
# Revision: 1
# Processed by: cddbd v1.4b41PL1 Copyright (c) Steve Scherf et al.
# Submitted via: CDWizzard Release:4.35
#
DISCID=f20bcd10
DTITLE=Jo Miller and Laura Love - Jo Miller and Laura Love Sing Bluegrass
DTITLE=and Old-Time Music
DYEAR=1900
DGENRE=
TTITLE0=Some Old Day
TTITLE1=Blue And Lonesome
TTITLE2=What About You
TTITLE3=In My Dear Old Southern Home
TTITLE4=My Native Home
TTITLE5=Bury Me Beneath The Willow
TTITLE6=Blue Railroad Train Blues
TTITLE7=My Sweet Love Ain't Around
TTITLE8=Don't You Call My Name
TTITLE9=Sittin' Alone In The Moonlight
TTITLE10=Somebody Loves You Darlin'
TTITLE11=Dear Companion
TTITLE12=Everybody Leaves Without Telling Me Goodbye
TTITLE13=Old Black Mountain Trail
TTITLE14=There Ain't No Ash Will Burn
TTITLE15=Golden River
EXTD=
EXTT0=
EXTT1=
EXTT2=
EXTT3=
EXTT4=
EXTT5=
EXTT6=
EXTT7=
EXTT8=
EXTT9=
EXTT10=
EXTT11=
EXTT12=
EXTT13=
EXTT14=
EXTT15=
PLAYORDER=
